<svg width="25" height="20" viewBox="0 0 25 20" fill="none" xmlns="http://www.w3.org/2000/svg">
<path d="M11.8958 5.9474C6.6721 5.7438 2.89677 2.54559 1.66208 0.97195C-0.14246 3.93409 1.89161 6.4642 3.13421 7.3591C2.64034 7.4146 1.4563 7.0428 0.92602 6.8499C1.09697 10.1083 3.65658 11.3703 4.91501 11.594C4.23119 11.7976 3.18962 11.7868 2.75431 11.756C3.62809 14.3849 6.1734 15.0421 7.3369 15.0421C5.15246 17.0045 1.53545 17.2483 0 17.1249C4.77255 19.9019 12.1332 20.4573 17.3806 15.5049C20.806 11.745 21.5916 9.3477 21.797 4.7672C23.1457 3.82301 23.9419 2.73843 24.1714 2.31417C23.5826 2.64741 22.1215 2.91585 21.4646 3.00842C22.6803 2.37897 23.3641 1.00281 23.5541 0.39341C22.8513 0.89327 21.1718 1.37307 20.4199 1.55049C19.2077 0.42412 18.3711 0.12754 16.6921 0C13.1542 0.20828 11.3971 2.80014 11.8958 5.9474Z" fill="white"/>
</svg>
